<mxfile host="app.diagrams.net" modified="2023-08-24T05:58:54.741Z" agent="Mozilla/5.0 (Windows NT 10.0; Win64; x64) AppleWebKit/537.36 (KHTML, like Gecko) Chrome/115.0.0.0 Safari/537.36" version="21.6.9" etag="y6pB8iUGbsg0S_akkBLo" type="github">
  <diagram name="第 1 页" id="y8NMUQInKAZWsSLNHn0i">
    <mxGraphModel>
      <root>
        <mxCell id="0" />
        <mxCell id="1" parent="0" />
      </root>
    </mxGraphModel>
  </diagram>
</mxfile>
